<svg id='Atmospheric Pressure' width='24' height='24' viewBox='0 0 24 24' xmlns='http://www.w3.org/2000/svg' xmlns:xlink='http://www.w3.org/1999/xlink'><rect width='24' height='24' stroke='none' fill='#000000' opacity='0'/>


<g transform="matrix(0.31 0 0 0.31 12 12)" >
<g style="" >
<g transform="matrix(1 0 0 1 0 29)" >
<ellipse style="stroke: none; stroke-width: 1; stroke-dasharray: none; stroke-linecap: butt; stroke-dashoffset: 0; stroke-linejoin: miter; stroke-miterlimit: 4; fill: rgb(0,0,0); fill-rule: nonzero; opacity: 0.3;" cx="0" cy="0" rx="22" ry="3" />
</g>
<g transform="matrix(1 0 0 1 17.5 -2)" >
<path style="stroke: none; stroke-width: 1; stroke-dasharray: none; stroke-linecap: butt; stroke-dashoffset: 0; stroke-linejoin: miter; stroke-miterlimit: 4; fill: rgb(55,208,238); fill-rule: nonzero; opacity: 1;" transform=" translate(-49.5, -30)" d="M 53 53 L 46 53 C 44.896 53 44 52.104 44 51 C 44 49.896 44.896 49 46 49 L 51 49 L 51 11 L 46 11 C 44.896 11 44 10.104 44 9 C 44 7.896000000000001 44.896 7 46 7 L 53 7 C 54.104 7 55 7.896 55 9 L 55 51 C 55 52.104 54.104 53 53 53 z" stroke-linecap="round" />
</g>
<g transform="matrix(1 0 0 1 17.5 -2)" >
<path style="stroke: none; stroke-width: 1; stroke-dasharray: none; stroke-linecap: butt; stroke-dashoffset: 0; stroke-linejoin: miter; stroke-miterlimit: 4; fill: rgb(55,208,238); fill-rule: nonzero; opacity: 1;" transform=" translate(-49.5, -30)" d="M 53 32 L 46 32 C 44.896 32 44 31.104 44 30 C 44 28.896 44.896 28 46 28 L 53 28 C 54.104 28 55 28.896 55 30 C 55 31.104 54.104 32 53 32 z" stroke-linecap="round" />
</g>
<g transform="matrix(1 0 0 1 18.5 -12)" >
<path style="stroke: none; stroke-width: 1; stroke-dasharray: none; stroke-linecap: butt; stroke-dashoffset: 0; stroke-linejoin: miter; stroke-miterlimit: 4; fill: rgb(55,208,238); fill-rule: nonzero; opacity: 1;" transform=" translate(-50.5, -20)" d="M 53 22 L 48 22 C 46.896 22 46 21.104 46 20 C 46 18.896 46.896 18 48 18 L 53 18 C 54.104 18 55 18.896 55 20 C 55 21.104 54.104 22 53 22 z" stroke-linecap="round" />
</g>
<g transform="matrix(1 0 0 1 18.5 9)" >
<path style="stroke: none; stroke-width: 1; stroke-dasharray: none; stroke-linecap: butt; stroke-dashoffset: 0; stroke-linejoin: miter; stroke-miterlimit: 4; fill: rgb(55,208,238); fill-rule: nonzero; opacity: 1;" transform=" translate(-50.5, -41)" d="M 53 43 L 48 43 C 46.896 43 46 42.104 46 41 C 46 39.896 46.896 39 48 39 L 53 39 C 54.104 39 55 39.896 55 41 C 55 42.104 54.104 43 53 43 z" stroke-linecap="round" />
</g>
<g transform="matrix(1 0 0 1 17.5 -17.5)" >
<path style="stroke: none; stroke-width: 1; stroke-dasharray: none; stroke-linecap: butt; stroke-dashoffset: 0; stroke-linejoin: miter; stroke-miterlimit: 4; fill: rgb(253,60,79); fill-rule: nonzero; opacity: 1;" transform=" translate(-49.5, -14.5)" d="M 46 11 L 51 11 L 51 18 L 48 18 C 46.896 18 46 18.896 46 20 C 46 21.104 46.896 22 48 22 L 51 22 L 55 22 L 55 9 C 55 7.896 54.104 7 53 7 L 46 7 C 44.896 7 44 7.896 44 9 C 44 10.104 44.896 11 46 11 z" stroke-linecap="round" />
</g>
<g transform="matrix(1 0 0 1 -13.51 -5.94)" >
<path style="stroke: none; stroke-width: 1; stroke-dasharray: none; stroke-linecap: butt; stroke-dashoffset: 0; stroke-linejoin: miter; stroke-miterlimit: 4; fill: rgb(0,138,169); fill-rule: nonzero; opacity: 1;" transform=" translate(-18.49, -26.06)" d="M 19.977 7 C 18.891000000000002 7 18.003 7.874 17.98 8.96 C 17.633 25.314 13 29.56 13 44 C 13 45.5 19 45.5 19 44 C 19 29.588 23.615000000000002 25.33 23.977 9.054000000000002 C 24.003 7.932 23.099 7 21.976 7 L 19.977 7 z" stroke-linecap="round" />
</g>
<g transform="matrix(1 0 0 1 3.51 -5.94)" >
<path style="stroke: none; stroke-width: 1; stroke-dasharray: none; stroke-linecap: butt; stroke-dashoffset: 0; stroke-linejoin: miter; stroke-miterlimit: 4; fill: rgb(0,138,169); fill-rule: nonzero; opacity: 1;" transform=" translate(-35.51, -26.06)" d="M 36.999 7 C 35.913000000000004 7 35.025000000000006 7.874 35.002 8.96 C 34.655 25.314 30.022 29.56 30.022 44 C 30.022 45.5 36.022 45.5 36.022 44 C 36.022 29.588 40.637 25.33 40.998999999999995 9.054000000000002 C 41.024 7.932 40.121 7 38.997 7 L 36.999 7 z" stroke-linecap="round" />
</g>
<g transform="matrix(1 0 0 1 -16 16)" >
<path style="stroke: none; stroke-width: 1; stroke-dasharray: none; stroke-linecap: butt; stroke-dashoffset: 0; stroke-linejoin: miter; stroke-miterlimit: 4; fill: rgb(0,138,169); fill-rule: nonzero; opacity: 1;" transform=" translate(-16, -48)" d="M 21.149 43.005 L 10.853 43 C 9.315 42.999 8.449 44.713 9.392 45.89 L 14.536999999999999 52.308 C 15.276 53.23 16.715 53.231 17.455 52.31 L 22.605999999999998 45.898 C 23.552 44.72 22.687 43.006 21.149 43.005 z" stroke-linecap="round" />
</g>
<g transform="matrix(1 0 0 1 1 16)" >
<path style="stroke: none; stroke-width: 1; stroke-dasharray: none; stroke-linecap: butt; stroke-dashoffset: 0; stroke-linejoin: miter; stroke-miterlimit: 4; fill: rgb(0,138,169); fill-rule: nonzero; opacity: 1;" transform=" translate(-33, -48)" d="M 38.149 43.005 L 27.853 43 C 26.315 42.999 25.449 44.713 26.392000000000003 45.89 L 31.537000000000003 52.308 C 32.276 53.23 33.715 53.231 34.455000000000005 52.31 L 39.60600000000001 45.898 C 40.552 44.72 39.687 43.006 38.149 43.005 z" stroke-linecap="round" />
</g>
<g transform="matrix(1 0 0 1 -12.65 -13.5)" >
<path style="stroke: none; stroke-width: 1; stroke-dasharray: none; stroke-linecap: butt; stroke-dashoffset: 0; stroke-linejoin: miter; stroke-miterlimit: 4; fill: rgb(255,255,255); fill-rule: nonzero; opacity: 0.3;" transform=" translate(-19.35, -18.5)" d="M 21.98 7 L 19.98 7 C 18.89 7 18 7.87 17.98 8.96 C 17.77 18.62 16.07 24.05 14.72 29.86 C 14.73 29.87 14.73 29.87 14.74 29.87 C 15.13 29.96 15.51 30 15.89 30 C 18.16 30 20.21 28.45 20.76 26.15 C 21.720000000000002 22.06 22.64 17.409999999999997 22.92 11.049999999999999 C 23.310000000000002 10.76 23.66 10.419999999999998 23.950000000000003 10.03 C 23.960000000000004 9.709999999999999 23.970000000000002 9.379999999999999 23.980000000000004 9.049999999999999 C 24 7.93 23.1 7 21.98 7 z" stroke-linecap="round" />
</g>
<g transform="matrix(1 0 0 1 3.52 3.95)" >
<path style="stroke: none; stroke-width: 1; stroke-dasharray: none; stroke-linecap: butt; stroke-dashoffset: 0; stroke-linejoin: miter; stroke-miterlimit: 4; fill: rgb(0,0,0); fill-rule: nonzero; opacity: 0.15;" transform=" translate(-35.52, -35.95)" d="M 39.61 45.9 L 34.79 51.9 C 33.269999999999996 50.68 32.65 48.769999999999996 33.019999999999996 46.989999999999995 C 32.83 46.849999999999994 32.63999999999999 46.69 32.47 46.51 C 31.529999999999998 45.559999999999995 31.009999999999998 44.269999999999996 31.029999999999998 42.93 C 31.139999999999997 35.769999999999996 32.339999999999996 30.869999999999997 33.5 26.14 C 33.68 25.39 33.86 24.63 34.05 23.85 C 34.669999999999995 21.21 37.3 19.55 39.94 20.11 C 38.519999999999996 28.14 36.18 33.18 36.03 43 L 38.15 43.01 C 39.69 43.01 40.55 44.72 39.61 45.9 z" stroke-linecap="round" />
</g>
<g transform="matrix(1 0 0 1 -11 -15.5)" >
<path style="stroke: none; stroke-width: 1; stroke-dasharray: none; stroke-linecap: butt; stroke-dashoffset: 0; stroke-linejoin: miter; stroke-miterlimit: 4; fill: rgb(255,255,255); fill-rule: nonzero; opacity: 1;" transform=" translate(-21, -16.5)" d="M 20.502 22 C 20.404 22 20.305 21.99 20.206 21.97 C 19.394 21.808 18.866 21.017 19.029 20.205 C 19.683 16.939 20 14.419 20 12.5 C 20 11.671 20.672 11 21.5 11 C 22.328 11 23 11.671 23 12.5 C 23 14.648 22.673 17.284 21.971 20.794 C 21.828 21.507 21.202 22 20.502 22 z" stroke-linecap="round" />
</g>
</g>
</g>
</svg>