<svg width="72" height="120" viewBox="0 0 72 120" fill="none" xmlns="http://www.w3.org/2000/svg">
<rect x="0.5" y="0.5" width="71" height="119" rx="4.5" stroke="#7B61FF" stroke-dasharray="10 5"/>
<path fill-rule="evenodd" clip-rule="evenodd" d="M22 33C22 37.3628 24.4494 41.1323 28 42.9107V40.6003C25.6102 39.0152 24 36.2291 24 33C24 27.9605 27.9218 24 32.6083 24C36.5839 24 40.0091 26.85 40.9569 30.7911L40.9599 30.7899C41.0937 31.3367 41.1791 31.9037 41.2108 32.4855C41.8339 32.1732 42.5272 32 43.2493 32C45.8053 32 48 34.1696 48 37C48 38.7105 47.1984 40.1797 46 41.0745V43.3944C48.3573 42.3025 50 39.8501 50 37C50 33.134 46.9776 30 43.2493 30C43.1054 30 42.9626 30.0047 42.821 30.0139C41.5661 25.3898 37.469 22 32.6083 22C26.7495 22 22 26.9249 22 33ZM38.719 40.2026C38.9287 40.3237 39.2571 40.2708 39.4251 39.9798C39.5171 39.8204 39.6353 39.4894 39.721 38.9505C39.7551 38.7357 39.7808 38.5091 39.7995 38.2764C39.2154 38.6896 38.7729 39.1085 38.5588 39.4795C38.3908 39.7705 38.5093 40.0815 38.719 40.2026ZM39.7944 35.9217C40.8367 35.3377 41.7192 35.0042 41.7192 35.0042C41.7192 35.0042 41.8347 35.9432 41.8392 37.1264C41.8441 38.4226 41.7159 40.0116 41.157 40.9801C40.4541 42.198 38.915 42.6254 37.7192 41.9348C36.5235 41.2442 36.124 39.6971 36.8269 38.4792C37.4402 37.4164 38.7047 36.5323 39.7944 35.9217ZM32.1161 41.2203C32.3258 41.3414 32.6543 41.2885 32.8223 40.9975C32.9142 40.8381 33.0325 40.5071 33.1181 39.9682C33.1522 39.7534 33.178 39.5268 33.1966 39.2941C32.6126 39.7073 32.17 40.1262 31.9559 40.4972C31.788 40.7882 31.9064 41.0992 32.1161 41.2203ZM33.1916 36.9394C34.2339 36.3554 35.1164 36.0218 35.1164 36.0218C35.1164 36.0218 35.2318 36.9609 35.2363 38.1441C35.2413 39.4402 35.1131 41.0293 34.5541 41.9978C33.8513 43.2157 32.3121 43.6431 31.1164 42.9525C29.9207 42.2619 29.5211 40.7148 30.224 39.4969C30.8374 38.4341 32.1018 37.5499 33.1916 36.9394ZM41.6793 46.1129C41.5113 46.4039 41.1829 46.4567 40.9732 46.3356C40.7635 46.2145 40.645 45.9035 40.813 45.6125C41.0271 45.2415 41.4696 44.8227 42.0537 44.4095C42.0351 44.6421 42.0093 44.8687 41.9752 45.0836C41.8895 45.6225 41.7713 45.9535 41.6793 46.1129ZM43.9734 41.1372C43.9734 41.1372 43.0909 41.4708 42.0486 42.0548C40.9589 42.6653 39.6944 43.5495 39.0811 44.6122C38.3782 45.8301 38.7777 47.3772 39.9734 48.0678C41.1692 48.7584 42.7083 48.331 43.4112 47.1131C43.9701 46.1447 44.0983 44.5556 44.0934 43.2594C44.0889 42.0763 43.9734 41.1372 43.9734 41.1372ZM34.2549 47.9375C34.4645 48.0586 34.793 48.0058 34.961 47.7147C35.053 47.5554 35.1712 47.2244 35.2568 46.6855C35.291 46.4706 35.3167 46.244 35.3354 46.0113C34.7513 46.4246 34.3088 46.8434 34.0947 47.2144C33.9267 47.5054 34.0452 47.8164 34.2549 47.9375ZM35.3303 43.6566C36.3726 43.0727 37.2551 42.7391 37.2551 42.7391C37.2551 42.7391 37.3706 43.6781 37.3751 44.8613C37.38 46.1575 37.2518 47.7466 36.6929 48.715C35.99 49.9329 34.4509 50.3603 33.2551 49.6697C32.0594 48.9791 31.6599 47.432 32.3628 46.2141C32.9761 45.1514 34.2406 44.2672 35.3303 43.6566Z" fill="white"/>
<path fill-rule="evenodd" clip-rule="evenodd" d="M22 81C22 85.3628 24.4494 89.1323 28 90.9107V88.6003C25.6102 87.0152 24 84.2291 24 81C24 75.9605 27.9218 72 32.6083 72C36.5839 72 40.0091 74.85 40.9569 78.7911L40.9599 78.7899C41.0937 79.3367 41.1791 79.9037 41.2108 80.4855C41.8339 80.1732 42.5272 80 43.2493 80C45.8053 80 48 82.1696 48 85C48 86.7105 47.1984 88.1797 46 89.0745V91.3944C48.3573 90.3025 50 87.8501 50 85C50 81.134 46.9776 78 43.2493 78C43.1054 78 42.9626 78.0047 42.821 78.0139C41.5661 73.3898 37.469 70 32.6083 70C26.7495 70 22 74.9249 22 81ZM38.719 88.2026C38.9287 88.3237 39.2571 88.2708 39.4251 87.9798C39.5171 87.8204 39.6353 87.4894 39.721 86.9505C39.7551 86.7357 39.7808 86.5091 39.7995 86.2764C39.2154 86.6896 38.7729 87.1085 38.5588 87.4795C38.3908 87.7705 38.5093 88.0815 38.719 88.2026ZM39.7944 83.9217C40.8367 83.3377 41.7192 83.0042 41.7192 83.0042C41.7192 83.0042 41.8347 83.9432 41.8392 85.1264C41.8441 86.4226 41.7159 88.0116 41.157 88.9801C40.4541 90.198 38.915 90.6254 37.7192 89.9348C36.5235 89.2442 36.124 87.6971 36.8269 86.4792C37.4402 85.4164 38.7047 84.5323 39.7944 83.9217ZM32.1161 89.2203C32.3258 89.3414 32.6543 89.2885 32.8223 88.9975C32.9142 88.8381 33.0325 88.5071 33.1181 87.9682C33.1522 87.7534 33.178 87.5268 33.1966 87.2941C32.6126 87.7073 32.17 88.1262 31.9559 88.4972C31.788 88.7882 31.9064 89.0992 32.1161 89.2203ZM33.1916 84.9394C34.2339 84.3554 35.1164 84.0218 35.1164 84.0218C35.1164 84.0218 35.2318 84.9609 35.2363 86.1441C35.2413 87.4402 35.1131 89.0293 34.5541 89.9978C33.8513 91.2157 32.3121 91.6431 31.1164 90.9525C29.9207 90.2619 29.5211 88.7148 30.224 87.4969C30.8374 86.4341 32.1018 85.5499 33.1916 84.9394ZM41.6793 94.1129C41.5113 94.4039 41.1829 94.4567 40.9732 94.3356C40.7635 94.2145 40.645 93.9035 40.813 93.6125C41.0271 93.2415 41.4696 92.8227 42.0537 92.4095C42.0351 92.6421 42.0093 92.8687 41.9752 93.0836C41.8895 93.6225 41.7713 93.9535 41.6793 94.1129ZM43.9734 89.1372C43.9734 89.1372 43.0909 89.4708 42.0486 90.0548C40.9589 90.6653 39.6944 91.5495 39.0811 92.6122C38.3782 93.8301 38.7777 95.3772 39.9734 96.0678C41.1692 96.7584 42.7083 96.331 43.4112 95.1131C43.9701 94.1447 44.0983 92.5556 44.0934 91.2594C44.0889 90.0763 43.9734 89.1372 43.9734 89.1372ZM34.2549 95.9375C34.4645 96.0586 34.793 96.0058 34.961 95.7147C35.053 95.5554 35.1712 95.2244 35.2568 94.6855C35.291 94.4706 35.3167 94.244 35.3354 94.0113C34.7513 94.4246 34.3088 94.8434 34.0947 95.2144C33.9267 95.5054 34.0452 95.8164 34.2549 95.9375ZM35.3303 91.6566C36.3726 91.0727 37.2551 90.7391 37.2551 90.7391C37.2551 90.7391 37.3706 91.6781 37.3751 92.8613C37.38 94.1575 37.2518 95.7466 36.6929 96.715C35.99 97.9329 34.4509 98.3603 33.2551 97.6697C32.0594 96.9791 31.6599 95.432 32.3628 94.2141C32.9761 93.1514 34.2406 92.2672 35.3303 91.6566Z" fill="url(#paint0_linear_9_2435)"/>
<defs>
<linearGradient id="paint0_linear_9_2435" x1="36" y1="70" x2="36" y2="98" gradientUnits="userSpaceOnUse">
<stop stop-color="#95B6F6"/>
<stop offset="1" stop-color="#5193DE"/>
</linearGradient>
</defs>
</svg>
